<?xml version="1.0"?>
<svg xmlns="http://www.w3.org/2000/svg" width="490" height="134" viewBox="0 0 490 134" fill="none">
<path d="M324.19 103.87C324.08 103.87 323.99 103.47 323.99 102.97L323.67 42.83C323.67 42.33 323.75 41.92 323.86 41.92C323.97 41.92 324.06 42.33 324.06 42.83L324.39 102.96C324.39 103.47 324.3 103.87 324.19 103.87Z" fill="#5C4638"/>
<path d="M342.21 59.4C348.337 59.96 352.43 60.7833 354.49 61.87C360.43 65.45 363.41 69.6633 363.43 74.51C363.43 77.6967 361.34 81.6533 357.16 86.38C354.699 88.6224 351.731 90.2351 348.51 91.08L348.3 90.87H346.4L343 92.8H342.58C341.36 92.8 340.58 91.82 340.24 89.86L340.44 89.01V88.37L340.23 88.16L340.44 87.53L340.61 80.34H340.4L340.61 79.7L340.34 69.35C340.19 68.5 339.98 68.08 339.7 68.08H338.85L337.38 68.72C335.82 68.2 335.04 67.43 335.04 66.4V64.5C335.04 63.6 336.58 62.33 339.67 60.67C339.976 60.2872 340.362 59.9755 340.801 59.7562C341.239 59.537 341.72 59.4154 342.21 59.4ZM345.84 66.14L345.63 66.36V69.36L345.86 74.22L345.66 75.7L346.09 78.02L345.89 79.29V81.41L346.11 82.25L345.9 83.1V83.73C346 84.58 346.21 85 346.55 85H348.87C351.93 84.1733 354.737 81.62 357.29 77.34L357.7 75.43C357.7 71.0833 354.367 68.0833 347.7 66.43L345.84 66.14Z" fill="#5C4638"/>
<path d="M368.84 67.9C370.29 67.9 371.15 70.85 371.43 76.76L371.71 89.45C371.403 91.71 370.28 92.8433 368.34 92.85C366.79 91.85 366.01 90.77 366 89.48V82.08L365.78 80.81L365.99 80.6V80.39C365.884 77.4836 365.587 74.5873 365.1 71.72V69.61C365 68.48 366.31 67.91 368.84 67.9ZM368.58 59C369.362 59.0189 370.13 59.2171 370.823 59.5795C371.517 59.9418 372.118 60.4586 372.58 61.09C372.3 64.19 371.18 65.7467 369.22 65.76C368.06 65.76 366.997 64.5667 366.03 62.18C366.03 60.18 366.86 59.18 368.56 59.18L368.58 59Z" fill="#5C4638"/>
<path d="M384.64 66.78H385.28C387.53 66.78 388.67 67.61 388.67 69.3V69.72C388.67 71.13 387.76 71.84 385.93 71.85L384.66 71.43C383.11 71.81 382.34 72.38 382.34 73.14C382.34 73.4667 384.047 75.9233 387.46 80.51C389.02 83.34 389.81 85.17 389.81 86C389.81 88.46 388.07 90.45 384.56 91.94L383.29 92.37H382.44C377.933 92.37 375.033 90.41 373.74 86.49V85.86C373.913 85.3776 374.227 84.958 374.64 84.6551C375.053 84.3521 375.548 84.1797 376.06 84.16C377.51 85.98 378.86 86.89 380.06 86.88C382.31 86.73 383.44 86.37 383.44 85.81V83.7L379.17 77.81C378.223 77.27 377.38 75.6667 376.64 73C376.633 70.0867 379.3 68.0133 384.64 66.78Z" fill="#5C4638"/>
<path d="M397.78 72.45L398.84 72.65L400.11 72.43C402.23 73.5167 403.293 74.71 403.3 76.01C403.353 76.6731 403.226 77.3382 402.932 77.935C402.638 78.5318 402.188 79.0379 401.63 79.4C400.737 79.4926 399.84 79.2735 399.09 78.78H398.66C397.879 79.5488 397.27 80.4754 396.875 81.498C396.481 82.5206 396.308 83.6156 396.37 84.71C396.87 86.71 397.87 87.71 399.37 87.65H401.27C402.603 87.65 406.967 86.29 414.36 83.57L415.2 83.35C416.05 83.68 416.47 83.96 416.47 84.19V84.4C416.47 87.1267 412.82 89.5433 405.52 91.65C403.825 92.2763 402.045 92.6405 400.24 92.73C398.809 92.7127 397.397 92.4082 396.086 91.8344C394.775 91.2607 393.593 90.4294 392.61 89.39C391.19 87.7633 390.473 85.43 390.46 82.39C390.46 80.03 391.713 77.2067 394.22 73.92L397.78 72.45Z" fill="#5C4638"/>
<path d="M432.72 65.73H433.14C435.54 66.33 436.74 67.1 436.75 68.04L437.18 70.36C436.585 72.713 436.25 75.124 436.18 77.55C437.28 81.92 438.91 84.09 441.08 84.08C442.21 84.69 442.78 85.39 442.78 86.19V86.61C441.96 88.31 440.9 89.16 439.62 89.16C437.86 89.16 435.62 87.71 433.04 84.76C433.04 84.44 432.68 84.23 431.98 84.13C429.313 89.5033 426.647 92.1967 423.98 92.21C423.094 91.9408 422.278 91.482 421.587 90.8656C420.896 90.2491 420.348 89.4896 419.98 88.64C418.273 86.0867 417.397 80.0267 417.35 70.46C417.59 70.46 417.8 70.11 417.97 69.4L420.72 68.97C422.72 70.03 423.72 70.97 423.72 71.91V72.55L423.31 74.87V75.72C423.49 81.64 424 84.5967 424.84 84.59C426.733 82.5167 428.61 77.6433 430.47 69.97C430.4 67.15 431.16 65.74 432.72 65.73Z" fill="#5C4638"/>
<path d="M455 66.4H455.63C457.89 66.4 459.02 67.23 459.03 68.92V69.34C459.03 70.75 458.12 71.46 456.29 71.47L455.02 71.06C453.47 71.43 452.7 72 452.7 72.76C452.7 73.1 454.407 75.5567 457.82 80.13C459.38 82.96 460.17 84.79 460.17 85.62C460.17 88.08 458.44 90.07 454.92 91.57L453.65 92H452.81C448.303 92 445.403 90.0433 444.11 86.13V85.49C444.283 85.0076 444.597 84.588 445.01 84.2851C445.423 83.9821 445.918 83.8097 446.43 83.79C447.88 85.61 449.23 86.52 450.43 86.52C452.69 86.36 453.81 86 453.81 85.44V83.33L449.55 77.43C448.55 76.92 447.72 75.31 446.98 72.58C446.993 69.6933 449.667 67.6333 455 66.4Z" fill="#5C4638"/>
<path d="M471.92 66.31H472.55C474.8 66.31 475.94 67.14 475.95 68.83V69.25C475.95 70.66 475.04 71.37 473.21 71.38L471.94 71C470.39 71.38 469.62 72 469.62 72.71C469.62 73.0367 471.327 75.4933 474.74 80.08C476.3 82.91 477.09 84.74 477.09 85.57C477.09 88.03 475.35 90.02 471.84 91.57L470.57 92H469.73C465.243 91.96 462.333 89.96 461 86V85.4C461.173 84.9176 461.487 84.498 461.9 84.1951C462.313 83.8921 462.808 83.7197 463.32 83.7C464.77 85.52 466.12 86.43 467.32 86.42C469.58 86.27 470.7 85.91 470.7 85.35V83.23L466.44 77.34C465.44 76.83 464.61 75.22 463.87 72.49C463.89 69.6033 466.573 67.5433 471.92 66.31Z" fill="#5C4638"/>
<path d="M310 43.56C308.866 42.242 307.463 41.183 305.884 40.455C304.305 39.7269 302.588 39.3466 300.85 39.34C300.6 39.34 300.34 39.34 300.09 39.34L87.88 54.34H87.8C77.43 55.41 71.53 61.74 70.74 72.64L70.64 73.9C70.44 73.9 70.24 73.9 70.04 73.9C69.741 73.908 69.4433 73.9415 69.15 74C68.8606 74.0309 68.5774 74.1051 68.31 74.22V69.77C70.51 68.33 71.31 64.67 72.62 58.19C72.79 57.35 72.96 56.5 73.14 55.65C74.884 52.0375 76.988 48.6102 79.42 45.42C83.42 39.8 87.51 33.99 87.05 27.18L86.77 26.18C82.17 17.34 76.08 11.71 68.16 9C66.1203 8.3015 64.0311 7.75664 61.91 7.37L60.08 6.97L59.88 6.91C55.24 5.9742 50.523 5.47204 45.79 5.41C43.8014 5.40877 41.8157 5.5592 39.85 5.86C37.2458 6.41175 34.7292 7.31679 32.37 8.55C29.58 9.83 26.69 11.16 24.16 11.35L23.53 11.48C17.94 13.35 16.12 15.94 14.66 18.01L14.35 18.46L14.1 18.89C12.3067 22.698 11.8453 26.9982 12.79 31.1L12.86 31.3C13.55 33.49 14.38 35.6 15.18 37.65C16.8816 41.5615 18.1167 45.6597 18.86 49.86L19.17 50.77C19.8422 52.1664 20.3716 53.6271 20.75 55.13C21.8 58.66 23.08 63.04 26.52 66.5V66.85V71.69C26.52 71.69 13.89 77.87 10.23 80.62C8.41 82 6 85.36 10.48 88.17C13.92 90.33 24.89 95.98 24.86 96.31C24.5 100.21 25.86 103.7 27.12 105.16C28.3086 106.428 29.7585 107.423 31.3695 108.076C32.9804 108.728 34.7139 109.023 36.45 108.94C39.9921 108.975 43.4297 107.741 46.14 105.46C46.7213 104.951 47.2384 104.374 47.68 103.74C48.1336 104.364 48.6532 104.937 49.23 105.45C51.9786 107.706 55.445 108.902 59 108.82C60.7366 108.881 62.4658 108.565 64.0692 107.896C65.6727 107.226 67.1125 106.218 68.29 104.94C69.64 103.33 71.09 100.47 70.29 96L70.15 95.27C70.22 95.27 72.15 94.27 72.15 94.27C72.15 94.27 72.15 94.27 72.15 94.43C72.38 96.87 72.77 101.14 79.21 101.66H79.35L300.59 106.43H300.93C302.687 106.414 304.421 106.03 306.019 105.301C307.618 104.572 309.046 103.516 310.21 102.2C312.632 99.5501 313.958 96.0798 313.92 92.49L313.71 53.12C313.674 49.5889 312.355 46.1913 310 43.56Z" fill="white"/>
<path fill-rule="evenodd" clip-rule="evenodd" d="M88.07 56.91L300.27 41.91C306.18 41.5 311.08 46.91 311.11 53.18L311.32 92.56C311.32 98.79 306.53 104.06 300.6 103.95L79.35 99.18C74.8 98.81 74.82 96.18 74.57 93.55C90.2 90.63 81.25 71.84 73.28 72.86C74.09 61.52 80.63 57.68 88.07 56.86V56.91Z" fill="url(#paint0_linear_2_2)"/>
<path d="M73.64 77.63C76.0556 78.3588 78.2837 79.6043 80.17 81.28C80.3285 81.3733 80.4617 81.5042 80.5576 81.6612C80.6535 81.8182 80.7093 81.9963 80.72 82.18C80.72 82.74 80.31 83.29 79.46 83.82C77.9172 84.8563 76.4286 85.9711 75 87.16C73.6014 88.3248 72.1283 89.3971 70.59 90.37C70.3892 90.4744 70.1663 90.5292 69.94 90.53C69.7828 90.5328 69.6267 90.5042 69.4807 90.4458C69.3347 90.3874 69.2019 90.3004 69.09 90.19C68.9763 90.0917 68.8846 89.9705 68.8208 89.8344C68.7571 89.6983 68.7227 89.5503 68.72 89.4C68.726 89.1327 68.8291 88.8768 69.01 88.68C69.4932 88.0617 70.1172 87.568 70.83 87.24C71.6542 86.7794 72.4342 86.2438 73.16 85.64C74.28 84.72 75.05 84.12 75.48 83.84C76.48 83.36 76.91 83.02 76.91 82.84C76.9185 82.7937 76.9185 82.7463 76.91 82.7C76.3069 81.7552 75.3953 81.0485 74.33 80.7C73.27 80.41 72.19 80.1 71.1 79.77C70.0146 79.5095 69.0281 78.9398 68.26 78.13C68.2193 78.0603 68.1985 77.9807 68.2 77.9C68.2277 77.5666 68.3858 77.2575 68.64 77.04C68.7472 76.9053 68.8803 76.7935 69.0315 76.711C69.1826 76.6286 69.3487 76.5772 69.52 76.56C69.69 76.5165 69.8645 76.493 70.04 76.49C70.6828 76.5218 71.3138 76.6744 71.9 76.94C72.47 77.18 73.05 77.41 73.64 77.67M22.88 76.88C23.3219 76.858 23.7575 76.9925 24.11 77.26C24.2517 77.3666 24.3675 77.5038 24.4489 77.6613C24.5303 77.8189 24.5751 77.9927 24.58 78.17C24.5828 78.298 24.5594 78.4252 24.5112 78.5439C24.4631 78.6626 24.3912 78.7701 24.3 78.86C23.0098 79.9839 21.5114 80.8435 19.89 81.39C18.2517 81.9173 16.8072 82.9198 15.74 84.27C17.2867 85.1666 18.8901 85.9617 20.54 86.65L25.43 88.81C25.6158 88.8863 25.7743 89.0168 25.8849 89.1844C25.9955 89.3521 26.053 89.5492 26.05 89.75C26.0701 90.0145 26.0229 90.2798 25.9127 90.5211C25.8026 90.7625 25.6331 90.9719 25.42 91.13C24.9706 91.5118 24.3998 91.721 23.81 91.72C23.5738 91.7214 23.3395 91.6772 23.12 91.59C22.7842 91.262 22.4231 90.9611 22.04 90.69C19.17 89.14 16.11 87.69 12.85 86.28C12.52 86.15 12.19 86.03 11.85 85.94C11.6657 85.8743 11.5021 85.7611 11.3757 85.6119C11.2492 85.4626 11.1645 85.2825 11.13 85.09C11.141 84.5955 11.2552 84.1088 11.4653 83.6611C11.6754 83.2134 11.9768 82.8145 12.35 82.49C13.8837 81.3728 15.5414 80.4366 17.29 79.7C19.0163 78.9877 20.6405 78.0495 22.12 76.91C22.3689 76.852 22.6247 76.8284 22.88 76.84V76.88Z" fill="#5D4739"/>
<path d="M43.3 76.69C42.8955 76.0456 42.385 75.4742 41.79 75C41.3159 74.6783 40.7527 74.5138 40.18 74.53C39.9916 74.5227 39.8038 74.5569 39.63 74.63L36 75.94C35.7732 76.0104 35.5374 76.0474 35.3 76.05C34.8852 76.0641 34.4763 75.9487 34.13 75.72C33.7039 75.3385 33.3396 74.8932 33.05 74.4L32.05 75.07C32.4825 75.7498 33.0269 76.3516 33.66 76.85C34.1519 77.1708 34.7338 77.325 35.32 77.29C35.6215 77.2916 35.9215 77.2478 36.21 77.16L39.51 75.94C39.7373 75.8556 39.9776 75.8116 40.22 75.81C40.571 75.7891 40.9201 75.8764 41.22 76.06C41.6379 76.4 42.002 76.8012 42.3 77.25L43.23 76.69" fill="#5D4739"/>
<path fill-rule="evenodd" clip-rule="evenodd" d="M67.74 96.46C69.61 107.28 56.37 108.4 50.9 103.56C47.12 100.23 48.16 95.56 53.55 95.8C58.31 96.03 61.13 102.13 67.74 96.46Z" fill="#5D4739"/>
<path fill-rule="evenodd" clip-rule="evenodd" d="M27.51 96.67C25.75 107.52 39.01 108.49 44.42 103.6C48.16 100.22 47.08 95.6 41.69 95.86C36.94 96.14 34.19 102.27 27.51 96.67Z" fill="#5D4739"/>
<path d="M40.44 80.88C39.7765 80.4434 38.9939 80.2233 38.2 80.25C37.2333 80.2324 36.2975 80.591 35.59 81.25C35.202 81.6353 34.9171 82.112 34.7615 82.6362C34.606 83.1605 34.5848 83.7154 34.7 84.25C34.8026 85.285 35.2098 86.2663 35.87 87.07C36.1454 87.4404 36.5025 87.7423 36.9135 87.9521C37.3246 88.162 37.7785 88.2742 38.24 88.28C38.8582 88.2738 39.4643 88.1085 40 87.8C41.0667 87.1333 41.5967 85.9033 41.59 84.11C41.57 82.49 41.19 81.41 40.44 80.88ZM38.18 85.21C37.9541 85.212 37.7327 85.1468 37.544 85.0228C37.3552 84.8987 37.2075 84.7213 37.1197 84.5132C37.0319 84.3051 37.0079 84.0756 37.0507 83.8538C37.0936 83.632 37.2013 83.4279 37.3604 83.2675C37.5194 83.1071 37.7225 82.9975 37.9439 82.9527C38.1653 82.9079 38.395 82.9299 38.6039 83.0158C38.8128 83.1018 38.9915 83.2479 39.1172 83.4356C39.2429 83.6233 39.31 83.8441 39.31 84.07C39.3074 84.3698 39.1879 84.6568 38.9768 84.8698C38.7657 85.0827 38.4798 85.2048 38.18 85.21Z" fill="#5D4739"/>
<path d="M48.43 94.89C48.7732 94.9008 49.1146 94.8359 49.43 94.7C49.7269 94.5864 50.0063 94.4316 50.26 94.24C50.508 94.0468 50.7358 93.829 50.94 93.59C51.1327 93.3622 51.3098 93.1217 51.47 92.87C51.6086 92.6451 51.7322 92.4112 51.84 92.17C51.9191 91.9914 51.986 91.8077 52.04 91.62L51.99 91.52C51.975 91.4786 51.9511 91.4411 51.92 91.41C51.6605 91.8954 51.3226 92.3346 50.92 92.71C50.5805 93.0286 50.1834 93.2798 49.75 93.45C49.3027 93.6177 48.8276 93.6992 48.35 93.69C47.9577 93.6922 47.5671 93.6383 47.19 93.53C46.8578 93.4246 46.5465 93.2622 46.27 93.05C45.9894 92.836 45.7402 92.5835 45.53 92.3C45.2982 91.9849 45.0941 91.6503 44.92 91.3L44.86 91.39C44.8532 91.4162 44.8532 91.4437 44.86 91.47C45.0252 91.93 45.2363 92.3722 45.49 92.79C45.7227 93.1818 46.0013 93.5443 46.32 93.87C46.6114 94.1688 46.949 94.4187 47.32 94.61C47.6933 94.7929 48.1044 94.8853 48.52 94.88" fill="#5D4739"/>
<path d="M58.92 80.71C58.2565 80.2734 57.4738 80.0533 56.68 80.08C55.716 80.0608 54.7827 80.4198 54.08 81.08C53.6917 81.4653 53.406 81.9417 53.2488 82.4656C53.0916 82.9896 53.0679 83.5446 53.18 84.08C53.2872 85.1138 53.6939 86.0939 54.35 86.9C54.6253 87.2704 54.9824 87.5723 55.3935 87.7821C55.8046 87.992 56.2585 88.1042 56.72 88.11C57.3388 88.0989 57.9445 87.9303 58.48 87.62C59.55 86.97 60.08 85.75 60.07 83.93C60.05 82.31 59.67 81.23 58.92 80.71ZM56.32 85.23C56.1708 85.2313 56.0227 85.2031 55.8845 85.1469C55.7462 85.0907 55.6205 85.0076 55.5145 84.9026C55.4085 84.7975 55.3244 84.6725 55.267 84.5347C55.2095 84.397 55.18 84.2492 55.18 84.1C55.178 83.8741 55.2432 83.6527 55.3672 83.4639C55.4913 83.2752 55.6686 83.1275 55.8768 83.0397C56.0849 82.9518 56.3144 82.9278 56.5362 82.9707C56.758 83.0135 56.9621 83.1213 57.1225 83.2804C57.2829 83.4394 57.3925 83.6425 57.4373 83.8639C57.4821 84.0853 57.4601 84.315 57.3741 84.5239C57.2882 84.7328 57.1421 84.9114 56.9544 85.0371C56.7667 85.1629 56.5459 85.23 56.32 85.23Z" fill="#5D4739"/>
<path d="M66.67 67.74C68.52 66.92 69.43 60.67 70.67 54.85C75.12 44.53 85.14 36.85 84.48 27.33C76.12 11.22 64.56 10.71 59.61 9.44999C53.2 8.29999 46.79 7.44999 40.39 8.44999C35.84 9.09999 30 13.52 24.52 13.93C19.33 15.67 18 18 16.6 20C15.0395 23.2977 14.6378 27.0256 15.46 30.58C17.46 36.91 20.57 42.66 21.57 49.58C23.69 53.28 23.87 60.29 28.71 64.98C43.36 57.85 55.39 63.22 66.67 67.74Z" fill="url(#paint1_linear_2_2)"/>
<path d="M66.5 67.82L65.12 67.26C54.05 62.81 42.61 58.21 28.56 65H28.48H28.42C25.27 61.94 24.1 58 23.07 54.46C22.6487 52.7697 22.0451 51.1301 21.27 49.57C20.489 45.1834 19.2038 40.9016 17.44 36.81C16.65 34.81 15.85 32.72 15.17 30.61C14.3428 27.0219 14.7479 23.2597 16.32 19.93L16.66 19.45C17.98 17.57 19.48 15.45 24.32 13.82C27.32 13.59 30.42 12.17 33.4 10.82C35.5574 9.69918 37.8494 8.85902 40.22 8.31999C46.3 7.40999 52.31 8.08999 59.47 9.31999C60.05 9.46999 60.68 9.58999 61.47 9.74999C66.92 10.87 77.05 12.95 84.47 27.26V27.31C84.88 33.26 81.18 38.47 77.28 43.99C74.6813 47.3711 72.4425 51.0142 70.6 54.86C70.42 55.77 70.23 56.72 70.04 57.66C69.04 62.72 68.17 67.1 66.56 67.81L66.5 67.82ZM42.87 61.3C50.87 61.3 58.13 64.17 65.22 67.03L66.5 67.54C67.96 66.81 68.85 62.33 69.79 57.6C69.98 56.66 70.16 55.71 70.36 54.78C72.1847 50.8881 74.4172 47.2008 77.02 43.78C80.89 38.3 84.55 33.15 84.17 27.29C76.81 13.08 67.17 11.1 61.36 9.90999C60.62 9.74999 59.98 9.62999 59.36 9.47999C52.24 8.20999 46.24 7.52999 40.2 8.47999C37.8655 9.03179 35.6107 9.8786 33.49 11C30.49 12.38 27.38 13.81 24.36 14C19.62 15.6 18.15 17.69 16.85 19.53L16.53 19.99C14.996 23.26 14.6017 26.9497 15.41 30.47C16.09 32.57 16.89 34.65 17.67 36.66C19.4412 40.7601 20.7299 45.0523 21.51 49.45C22.288 51.0169 22.8948 52.6631 23.32 54.36C24.32 57.81 25.49 61.73 28.54 64.74C32.9976 62.5313 37.8956 61.3556 42.87 61.3Z" fill="#C9BDA9"/>
<path fill-rule="evenodd" clip-rule="evenodd" d="M29.14 69C34.43 66.17 47.64 59.14 65.47 71.24C65.9564 68.4035 65.9935 65.5081 65.58 62.66C65 55.92 38.49 47.79 29 62.74L29.14 69Z" fill="url(#paint2_linear_2_2)"/>
<path d="M65.5 71.35H65.43C57.8 66.17 50.12 63.9 42.6 64.64C37.8621 65.1967 33.2901 66.7253 29.17 69.13H29.09V69L28.91 62.69C30.2203 60.6648 31.9288 58.9272 33.9315 57.5829C35.9342 56.2386 38.1895 55.3156 40.56 54.87C45.1698 53.928 49.9334 54.0477 54.49 55.22C60.82 56.8 65.39 59.86 65.61 62.66C66.0184 65.5151 65.9813 68.4163 65.5 71.26V71.35ZM45.21 64.35C51.89 64.35 58.67 66.61 65.42 71.17C65.8898 68.3651 65.9201 65.5042 65.51 62.69C65.3 59.97 60.66 56.88 54.51 55.35C49.9618 54.1663 45.202 54.0466 40.6 55C38.2421 55.4414 35.9983 56.3568 34.0044 57.6906C32.0105 59.0244 30.308 60.749 29 62.76L29.18 68.94C33.301 66.5604 37.864 65.0463 42.59 64.49C43.4603 64.3975 44.3349 64.3508 45.21 64.35Z" fill="#C9BDA9"/>
<path fill-rule="evenodd" clip-rule="evenodd" d="M21.41 18.88C20.62 23.01 24.34 35.99 23.16 42.88C22.51 39.3 20.16 32.21 20.27 28.21C19.14 25.82 18.02 22.91 16.81 21.8C15.6 20.69 19.27 14.85 21.41 18.93" fill="url(#paint3_linear_2_2)"/>
<path d="M30 60.71C25.17 55.11 23.14 45.45 21.42 37.29C20.07 30.82 18.91 25.29 16.71 23.57C16.4462 23.214 16.2745 22.7984 16.21 22.36C16.1282 21.5356 16.2881 20.7052 16.67 19.97C17.0533 19.1759 17.627 18.4888 18.34 17.97C18.8026 17.6391 19.3373 17.4231 19.9 17.34V17.45C19.3543 17.5264 18.8357 17.7359 18.39 18.06C17.8859 18.6628 17.4406 19.3125 17.06 20C16 22.15 18.22 22 19.06 23.19C21.28 24.95 21.5 30.78 22.85 37.28C24.6 45.4 25.2 55.06 30 60.63L29.93 60.69" fill="#AA9775"/>
<path fill-rule="evenodd" clip-rule="evenodd" d="M29.54 17.16C28.74 21.28 30.88 30.72 29.7 37.56C29.05 33.99 26.7 26.9 26.81 22.9C25.69 20.5 24.35 17.77 23.57 16.35C22.87 15.1 26.5 13.35 29.57 17.16" fill="url(#paint4_linear_2_2)"/>
<path d="M27.94 15.72C27.6178 15.449 27.2357 15.2586 26.8253 15.1647C26.4149 15.0708 25.988 15.0761 25.58 15.18C25.2461 15.219 24.9268 15.3392 24.65 15.53C24.4173 15.7027 24.2569 15.9558 24.2 16.24C24.15 16.67 23.87 16.74 24.27 17.53C27 21.13 29 27.11 29.62 33.48C30.37 41.57 29.48 50.48 34.87 56.84L34.78 56.91C29.36 50.57 28.53 41.6 27.78 33.5C27.18 27.14 26.64 21.31 23.97 17.74C23.7456 17.4934 23.5725 17.2046 23.4609 16.8904C23.3493 16.5762 23.3014 16.2429 23.32 15.91C23.3465 15.7555 23.4034 15.6079 23.4876 15.4757C23.5717 15.3435 23.6813 15.2294 23.81 15.14C24.108 14.9365 24.4514 14.8095 24.81 14.77C25.9518 14.6771 27.0904 14.9847 28.03 15.64L27.96 15.72" fill="#AA9775"/>
<path d="M42.61 9.85999C45.1 13.98 40.61 32.6 39.91 44.29C39.85 45.29 30.91 5.75999 42.61 9.85999Z" fill="url(#paint5_linear_2_2)"/>
<path d="M41.81 54.59C38.2615 44.8928 36.0805 34.7487 35.33 24.45C35.0477 21.0449 35.3008 17.6167 36.08 14.29C36.85 11.64 38.19 9.89999 40.3 9.56999C41.073 9.46887 41.8584 9.52327 42.61 9.72999V9.82999C41.8497 9.69346 41.069 9.72073 40.32 9.90999C38.56 10.32 38.78 11.42 37.64 13.91C36.7555 17.1137 36.4841 20.4556 36.84 23.76C38.39 33.57 40.31 46.93 41.94 54.54H41.84" fill="#B6A686"/>
<path d="M50 53.91C49.88 53.11 49.77 52.3 49.65 51.48C47.75 38.26 45.42 22.08 53.22 10.4L53.32 10.46C50.15 19.08 49.79 35.46 49.44 40.79C49.29 43.08 49.57 47.98 49.76 51.47C49.88 52.29 50 53.1 50.11 53.9H50" fill="#CCBD9D"/>
<path d="M58.57 55.58C58.81 48.71 59.5 40.69 60.12 33.74C61.72 24.96 66.17 20.74 67.28 11.93V11.81C63.2984 18.5534 60.6725 26.0097 59.55 33.76C58.4982 40.9795 58.2 48.2888 58.66 55.57H58.55" fill="url(#paint6_linear_2_2)"/>
<path d="M79 22.26C75.5 33.26 71.32 44.06 67.1 54.96C67.1 40.56 74.76 23.17 79 22.26Z" fill="url(#paint7_linear_2_2)"/>
<path d="M65.11 59.82C66.97 57.82 67.11 54.82 67.23 51.38C67.35 48.15 67.5 44.53 69.07 40.94C69.07 40.81 69.17 40.57 69.25 40.27C70.25 36.63 74.38 21.97 79.25 22.21V22.32C75.42 22.2 70.65 36.7 69.51 40.32C69.42 40.62 69.4 40.81 69.36 40.96C68 44.53 68 48.17 67.51 51.39C67.37 54.88 67.09 57.91 65.2 59.9L65.11 59.82Z" fill="#AA9775"/>
<path d="M113.09 87.73C113.04 88.0733 112.882 88.3919 112.64 88.64C111.353 90.2022 109.724 91.4477 107.879 92.28C106.034 93.1123 104.023 93.5092 102 93.44C99.9463 93.5235 97.8991 93.1598 95.9998 92.3742C94.1005 91.5886 92.3946 90.3998 91 88.89C88.2034 85.8228 86.7081 81.7889 86.83 77.64C86.7057 73.5392 88.1343 69.5427 90.83 66.45C92.1298 64.8956 93.7608 63.6516 95.6035 62.809C97.4462 61.9664 99.454 61.5465 101.48 61.58C106.18 61.58 109.87 62.97 112.56 65.84C112.803 66.0576 112.96 66.356 113 66.68C112.633 67.76 112.129 68.7884 111.5 69.74C110.977 70.8033 110.343 71.8089 109.61 72.74C109.554 72.7972 109.487 72.8425 109.413 72.8735C109.339 72.9044 109.26 72.9202 109.18 72.92C108.786 72.6742 108.421 72.3857 108.09 72.06C107.391 71.4279 106.615 70.887 105.78 70.45C104.675 69.886 103.451 69.5946 102.21 69.6C101.226 69.5646 100.247 69.7638 99.3555 70.1811C98.4635 70.5984 97.6835 71.2218 97.08 72C95.8795 73.5644 95.2639 75.4995 95.34 77.47C95.2826 79.4644 95.9148 81.4175 97.13 83C97.7346 83.7769 98.5148 84.3995 99.4065 84.8166C100.298 85.2338 101.276 85.4337 102.26 85.4C103.506 85.3941 104.734 85.1033 105.85 84.55C106.665 84.1303 107.425 83.6095 108.11 83C108.409 82.6876 108.745 82.4123 109.11 82.18C109.195 82.1871 109.278 82.2111 109.353 82.2506C109.429 82.2901 109.496 82.3443 109.55 82.41C109.78 82.67 110.41 83.56 111.46 85.1C112.069 85.9244 112.598 86.8051 113.04 87.73H113.09Z" fill="white"/>
<path d="M144.21 77.31C144.282 79.3885 143.942 81.4607 143.209 83.4071C142.476 85.3534 141.365 87.1353 139.94 88.65C138.483 90.1316 136.746 91.3098 134.831 92.1164C132.916 92.9231 130.86 93.3423 128.782 93.3497C126.704 93.3571 124.644 92.9527 122.724 92.1598C120.803 91.3669 119.058 90.2011 117.59 88.73C116.147 87.2378 115.014 85.4744 114.257 83.5416C113.5 81.6089 113.134 79.5452 113.18 77.47C113.112 75.3888 113.457 73.3148 114.193 71.3671C114.929 69.4193 116.043 67.6361 117.47 66.12C118.915 64.6275 120.643 63.4386 122.553 62.623C124.464 61.8074 126.518 61.3815 128.595 61.3703C130.672 61.3592 132.73 61.7629 134.649 62.5579C136.568 63.3529 138.309 64.5232 139.77 66C141.22 67.4989 142.359 69.27 143.121 71.2111C143.883 73.1523 144.253 75.2251 144.21 77.31ZM135.97 77.31C136.013 75.2884 135.299 73.3236 133.97 71.8C133.319 71.0339 132.503 70.4247 131.584 70.0178C130.664 69.6109 129.665 69.4168 128.66 69.45C127.664 69.4461 126.681 69.6682 125.784 70.0995C124.886 70.5308 124.099 71.1601 123.48 71.94C122.173 73.4698 121.448 75.4116 121.431 77.4236C121.415 79.4356 122.108 81.389 123.39 82.94C124.058 83.6922 124.884 84.2874 125.809 84.6833C126.734 85.0792 127.735 85.2659 128.74 85.23C129.737 85.2301 130.721 85.0075 131.621 84.5784C132.52 84.1493 133.313 83.5246 133.94 82.75C135.278 81.2592 135.994 79.3124 135.94 77.31H135.97Z" fill="white"/>
<path d="M174.45 76.94C174.552 81.001 173.124 84.952 170.45 88.01C168.05 90.81 164.657 92.2933 160.27 92.46C159.43 92.46 157.113 92.4833 153.32 92.53C152.62 92.53 151.55 92.53 150.12 92.53C148.69 92.53 147.62 92.47 146.91 92.53C146.5 92.53 146.28 92.37 146.28 92.04C146.28 90.44 146.33 88.04 146.42 84.87C146.51 81.7 146.57 79.31 146.56 77.72C146.55 76.13 146.48 73.57 146.34 70.26C146.2 66.95 146.13 64.47 146.12 62.81C146.12 62.51 146.33 62.33 146.75 62.27C147.75 62.15 149.47 62.08 151.82 62.07C156.28 62.07 159.18 62.07 160.5 62.21C163.369 62.3525 166.152 63.2343 168.58 64.77C170.49 66.1603 171.995 68.0346 172.94 70.2C173.95 72.3399 174.482 74.6739 174.5 77.04L174.45 76.94ZM166.13 76.94C166.171 75.8424 165.995 74.7474 165.613 73.7178C165.23 72.6882 164.648 71.7443 163.9 70.94C163.138 70.1586 162.217 69.5505 161.198 69.157C160.18 68.7636 159.089 68.5941 158 68.66C155.77 68.66 154.66 68.97 154.66 69.56C154.66 70.41 154.66 71.7 154.66 73.4C154.66 75.1 154.66 76.4 154.66 77.24C154.66 78.08 154.66 79.34 154.72 81.02C154.78 82.7 154.78 84.02 154.78 84.83C154.78 85.45 155.95 85.75 158.27 85.73C159.379 85.7782 160.485 85.5768 161.506 85.1406C162.528 84.7045 163.438 84.0447 164.17 83.21C165.574 81.4503 166.285 79.2379 166.17 76.99L166.13 76.94Z" fill="white"/>
<path d="M198.76 85.44C198.713 86.5861 198.596 87.7282 198.41 88.86C198.322 89.9613 198.094 91.0468 197.73 92.09C197.661 92.2179 197.558 92.3246 197.433 92.3986C197.308 92.4726 197.165 92.5111 197.02 92.51C196.799 92.5031 196.578 92.4797 196.36 92.44C195.3 92.31 192.22 92.25 187.09 92.28H177.15C176.67 92.28 176.44 92.08 176.44 91.66C176.44 90.04 176.5 87.66 176.67 84.38C176.84 81.1 176.91 78.7 176.9 77.09C176.89 75.48 176.79 72.38 176.59 67.89C176.54 66.74 176.44 65.02 176.32 62.72V62.42C176.32 62.09 176.47 61.93 176.86 61.92C177.94 61.92 179.55 61.92 181.7 61.98C183.85 62.04 185.47 62.05 186.54 62.04C187.61 62.03 189.19 62.04 191.32 61.93C193.45 61.82 195.05 61.83 196.11 61.82C196.85 61.82 197.3 62.1 197.42 62.66C197.49 62.99 197.61 64 197.77 65.66C197.93 67.32 198.02 68.36 198.02 68.72C198.02 69.08 197.87 69.18 197.59 69.18H197.13C193.27 68.88 189.81 68.74 186.73 68.75C185.97 68.75 185.49 68.94 185.32 69.31C185.227 69.8581 185.193 70.4147 185.22 70.97C185.138 71.6684 185.297 72.374 185.67 72.97C185.866 73.1282 186.092 73.2452 186.334 73.3139C186.576 73.3826 186.83 73.4017 187.08 73.37H187.93H188.93C190.76 73.37 192.61 73.3 194.47 73.19L195.67 73.07C196.058 73.0182 196.449 72.9881 196.84 72.98C197.19 72.98 197.37 73.14 197.37 73.47C197.184 74.5691 197.058 75.6774 196.99 76.79C196.88 77.9433 196.83 79.1015 196.84 80.26C196.84 80.55 196.63 80.69 196.21 80.69C196.21 80.69 195.55 80.63 194.21 80.48C193.39 80.41 191.5 80.38 188.55 80.39H186.25C185.66 80.39 185.25 80.54 185.25 80.83C185.25 80.9 185.25 81.36 185.25 82.17C185.207 82.8879 185.285 83.6079 185.48 84.3C185.73 84.84 186.66 85.17 188.26 85.3H191.44C192.21 85.3 193.34 85.22 194.86 85.07C196.38 84.92 197.51 84.85 198.27 84.84C198.6 84.84 198.77 85.07 198.77 85.6L198.76 85.44Z" fill="white"/>
<path d="M281 85.53C280.952 86.6358 280.839 87.7377 280.66 88.83C280.568 89.8865 280.347 90.9277 280 91.93C279.932 92.056 279.831 92.1608 279.707 92.2331C279.584 92.3055 279.443 92.3424 279.3 92.34C279.089 92.3323 278.879 92.3123 278.67 92.28C277.67 92.16 274.67 92.09 269.67 92.12H260.05C259.58 92.12 259.35 91.92 259.35 91.52C259.35 89.96 259.42 87.63 259.57 84.52C259.72 81.41 259.81 79.05 259.8 77.52C259.79 75.99 259.68 72.99 259.5 68.67C259.45 67.56 259.36 65.89 259.24 63.67V63.38C259.24 63.05 259.38 62.9 259.76 62.9C260.81 62.9 262.37 62.9 264.45 62.96C266.53 63.02 268.1 63.02 269.15 62.96C270.2 62.9 271.72 62.96 273.79 62.86C275.86 62.76 277.4 62.76 278.43 62.75C279.16 62.75 279.58 63.02 279.7 63.55C279.77 63.87 279.88 64.84 280.04 66.46C280.2 68.08 280.28 69.06 280.28 69.4C280.289 69.4586 280.285 69.5186 280.268 69.5754C280.251 69.6322 280.221 69.6843 280.18 69.7277C280.139 69.7711 280.09 69.8046 280.034 69.8258C279.979 69.847 279.919 69.8553 279.86 69.85H279.42C275.68 69.57 272.31 69.42 269.33 69.44C268.58 69.44 268.13 69.63 267.96 69.97C267.855 70.4964 267.822 71.0346 267.86 71.57C267.787 72.2272 267.939 72.8898 268.29 73.45C268.678 73.7531 269.171 73.8897 269.66 73.83H270.48C270.89 73.83 271.22 73.83 271.48 73.83C273.25 73.83 275.04 73.76 276.86 73.65L278.01 73.53C278.5 73.53 278.87 73.45 279.15 73.45C279.43 73.45 279.67 73.61 279.67 73.92C279.486 74.972 279.362 76.0337 279.3 77.1C279.2 78.22 279.15 79.33 279.16 80.44C279.16 80.72 278.95 80.86 278.55 80.87L276.64 80.67C275.85 80.59 274.01 80.56 271.16 80.57H268.93C268.36 80.57 268.02 80.7 267.93 80.98C267.93 81.05 267.93 81.49 267.93 82.27C267.893 82.9448 267.971 83.621 268.16 84.27C268.4 84.79 269.31 85.1 270.86 85.19H273.95C274.69 85.19 275.8 85.12 277.27 84.98C278.74 84.84 279.84 84.76 280.56 84.76C280.86 84.76 281.01 85.03 281.01 85.52L281 85.53Z" fill="#F9F4DF"/>
<path d="M304.13 69.44C304.13 69.59 303.99 69.68 303.71 69.68C302.71 69.68 301.06 69.6 298.91 69.43C296.76 69.26 295.16 69.18 294.08 69.18C293.293 69.1442 292.505 69.1979 291.73 69.34C291.21 69.57 290.96 70.25 290.96 71.34C290.96 72.66 291.32 73.4 291.96 73.58C292.384 73.665 292.818 73.6986 293.25 73.68C294.25 73.68 295.68 73.61 297.6 73.5C299.52 73.39 300.99 73.32 301.96 73.31C302.42 73.31 302.66 74.53 302.67 76.98C302.748 78.2239 302.677 79.4727 302.46 80.7C302.421 80.8148 302.344 80.9134 302.243 80.9803C302.142 81.0472 302.021 81.0788 301.9 81.07C302.08 81.07 301.64 81.07 300.57 80.94C299.06 80.81 296.79 80.76 293.73 80.78C292.73 80.78 292.19 80.78 292.06 80.78C291.35 80.9 291 81.19 291 81.69C291 83.69 291.097 85.96 291.29 88.5C291.44 90.81 291.52 91.85 291.51 91.6C291.51 91.96 291.07 92.18 290.2 92.23C290.44 92.23 289.8 92.23 288.32 92.23C286.623 92.3003 284.923 92.2199 283.24 91.99C282.83 91.89 282.63 91.68 282.63 91.35C282.63 89.8 282.63 87.49 282.75 84.35C282.87 81.21 282.88 78.94 282.87 77.35C282.87 75.51 282.76 73.21 282.58 70.43C282.31 66.14 282.16 63.83 282.14 63.52V63.26C282.14 62.91 282.34 62.74 282.77 62.74C283.82 62.74 285.38 62.74 287.49 62.74C289.6 62.74 291.17 62.74 292.23 62.74C293.29 62.74 295.04 62.64 297.29 62.46C299.54 62.28 301.23 62.18 302.37 62.18C303.07 62.18 303.47 62.45 303.56 63.03C303.65 63.61 303.56 64.52 303.66 65.72C303.66 66.02 303.78 66.62 303.94 67.49C304.045 68.0748 304.108 68.6663 304.13 69.26V69.44Z" fill="#F9F4DF"/>
<path d="M200.71 70.78C199.513 74.9886 199.89 79.4891 201.77 83.44C203.411 87.494 206.557 90.7554 210.55 92.54C212.51 93.3852 214.634 93.7859 216.767 93.7133C218.901 93.6407 220.992 93.0966 222.89 92.12C224.837 91.2909 226.57 90.0287 227.956 88.4293C229.343 86.8299 230.346 84.9354 230.89 82.89C230.938 82.7105 230.965 82.5258 230.97 82.34C230.77 82.18 230.18 81.75 228.49 80.66C226.8 79.57 226 79.12 225.67 78.94C225.59 79.12 225.47 79.37 225.31 79.74C224.869 80.7232 224.312 81.6499 223.65 82.5C222.725 83.6606 221.544 84.5916 220.2 85.22C219.135 85.7566 217.955 86.0278 216.763 86.0104C215.57 85.993 214.399 85.6875 213.35 85.12C211.323 83.9214 209.717 82.1239 208.753 79.9749C207.79 77.8258 207.516 75.431 207.97 73.12C208.237 71.9551 208.773 70.8688 209.535 69.9485C210.298 69.0281 211.265 68.2991 212.36 67.82C213.689 67.2156 215.142 66.9346 216.6 67C217.695 67.0699 218.777 67.2782 219.82 67.62L220.75 67.89C220.952 66.735 221.092 65.57 221.17 64.4C221.325 63.2671 221.379 62.1225 221.33 60.98C221.214 60.8746 221.078 60.7931 220.93 60.74C219.324 60.0605 217.594 59.7201 215.85 59.74C213.363 59.7989 210.918 60.4031 208.69 61.51C206.756 62.367 205.037 63.6434 203.656 65.2466C202.276 66.8499 201.27 68.7399 200.71 70.78Z" fill="#F9F4DF"/>
<path d="M256.63 84.7C256.47 81.6667 256.387 79.3967 256.38 77.89C256.38 76.2767 256.433 73.86 256.54 70.64C256.66 67.4 256.71 65 256.7 63.4C256.7 63.07 256.49 62.91 256.08 62.91C255.67 62.91 255.08 62.91 254.2 62.98C253.32 63.05 252.75 63.05 252.33 63.05C251.91 63.05 251.28 63.05 250.45 63.05C249.62 63.05 248.99 63.05 248.57 63.05C248.15 63.05 248.05 63.26 248.05 63.7C248.05 64.7 248.12 66.23 248.23 68.26C248.34 70.29 248.39 71.79 248.39 72.8C248.39 73.28 248.24 73.56 247.9 73.65C246.163 73.8285 244.416 73.892 242.67 73.84C240.866 73.9144 239.059 73.871 237.26 73.71C237 73.63 236.87 73.34 236.87 72.86C236.87 71.81 236.87 70.26 237.07 68.17C237.27 66.08 237.29 64.53 237.28 63.48C237.288 63.4304 237.285 63.3796 237.27 63.3316C237.255 63.2836 237.229 63.2398 237.194 63.2037C237.159 63.1677 237.116 63.1404 237.068 63.1241C237.021 63.1079 236.97 63.103 236.92 63.11C236.47 63.11 235.8 63.11 234.92 63.18C234.04 63.25 233.33 63.25 232.92 63.25C232.51 63.25 231.83 63.25 230.92 63.25C230.01 63.25 229.39 63.19 228.92 63.25C228.859 63.2413 228.797 63.247 228.739 63.2667C228.681 63.2864 228.629 63.3196 228.586 63.3634C228.543 63.4072 228.511 63.4606 228.493 63.519C228.474 63.5775 228.47 63.6395 228.48 63.7C228.48 65.31 228.58 67.7 228.73 70.97C228.88 74.24 229 76.43 229 78C229 78.3267 229 78.6967 229 79.11L229.32 79.31C232.19 81.14 232.27 81.31 232.39 81.6C232.574 82.1277 232.574 82.7023 232.39 83.23C231.742 85.7757 230.443 88.1088 228.62 90C228.62 90.63 228.62 91.19 228.62 91.67C228.62 92.15 228.83 92.24 229.24 92.31C230.444 92.4127 231.652 92.4494 232.86 92.42C234.195 92.4531 235.531 92.403 236.86 92.27C237.032 92.2452 237.187 92.1536 237.292 92.015C237.397 91.8765 237.443 91.7022 237.42 91.53C237.42 90.45 237.37 88.83 237.29 86.66C237.21 84.49 237.16 82.88 237.16 81.79C237.16 81.24 237.3 80.93 237.62 80.85C239.328 80.6837 241.045 80.6236 242.76 80.67C244.461 80.608 246.164 80.6514 247.86 80.8C248.18 80.88 248.33 81.2 248.33 81.73C248.33 82.83 248.33 84.49 248.2 86.73C248.07 88.97 248.06 90.59 248.06 91.73C248.06 92.02 248.26 92.2 248.64 92.29C249.933 92.4072 251.232 92.4439 252.53 92.4C253.742 92.4106 254.953 92.3606 256.16 92.25C256.362 92.2532 256.563 92.2158 256.75 92.14C256.87 92.08 256.94 91.89 256.94 91.59C256.88 90 256.8 87.74 256.63 84.7Z" fill="#F9F4DF"/>
<defs>
<linearGradient id="paint0_linear_2_2" x1="82.2435" y1="73.8285" x2="320.184" y2="71.4491" gradientUnits="userSpaceOnUse">
<stop stop-color="#3B261A"/>
<stop offset="0.13" stop-color="#4B2E1D"/>
<stop offset="0.33" stop-color="#60371D"/>
<stop offset="0.51" stop-color="#6F3D1C"/>
<stop offset="0.64" stop-color="#743F1D"/>
<stop offset="0.73" stop-color="#713D1D"/>
<stop offset="0.83" stop-color="#65391D"/>
<stop offset="0.93" stop-color="#54311B"/>
<stop offset="1" stop-color="#492B19"/>
</linearGradient>
<linearGradient id="paint1_linear_2_2" x1="23.8899" y1="38.0484" x2="93.3399" y2="37.3539" gradientUnits="userSpaceOnUse">
<stop offset="0.04" stop-color="#FAFAEE"/>
<stop offset="0.42" stop-color="#FAFAEE"/>
<stop offset="0.49" stop-color="#F4F0E1"/>
<stop offset="0.61" stop-color="#E5DDC8"/>
<stop offset="0.77" stop-color="#CEC09F"/>
<stop offset="0.8" stop-color="#CBBB98"/>
<stop offset="1" stop-color="#BCA887"/>
</linearGradient>
<linearGradient id="paint2_linear_2_2" x1="37.879" y1="62.821" x2="74.749" y2="62.4523" gradientUnits="userSpaceOnUse">
<stop stop-color="#FAFAEE"/>
<stop offset="0.05" stop-color="#FAFAEE"/>
<stop offset="0.38" stop-color="#FAFAEE"/>
<stop offset="0.51" stop-color="#F5F3E6"/>
<stop offset="0.7" stop-color="#EAE4D0"/>
<stop offset="0.92" stop-color="#DBD0B3"/>
<stop offset="1" stop-color="#D5C7A6"/>
</linearGradient>
<linearGradient id="paint3_linear_2_2" x1="25.4008" y1="30.1225" x2="32.0908" y2="30.0556" gradientUnits="userSpaceOnUse">
<stop stop-color="#E9DCCB"/>
<stop offset="1" stop-color="#F3ECDF"/>
</linearGradient>
<linearGradient id="paint4_linear_2_2" x1="35.2182" y1="22.7636" x2="38.9518" y2="28.0868" gradientUnits="userSpaceOnUse">
<stop stop-color="#EDE2D2"/>
<stop offset="0.43" stop-color="#EEE6DA"/>
<stop offset="1" stop-color="#EFE9DE"/>
</linearGradient>
<linearGradient id="paint5_linear_2_2" x1="45.3597" y1="26.8126" x2="52.1697" y2="26.7445" gradientUnits="userSpaceOnUse">
<stop stop-color="#EDE2D2"/>
<stop offset="1" stop-color="#EEE5D6"/>
</linearGradient>
<linearGradient id="paint6_linear_2_2" x1="71.6851" y1="26.0893" x2="71.5951" y2="35.0911" gradientUnits="userSpaceOnUse">
<stop stop-color="#BCA88B"/>
<stop offset="1" stop-color="#C8BCA2"/>
</linearGradient>
<linearGradient id="paint7_linear_2_2" x1="75.8182" y1="38.3592" x2="87.8982" y2="38.2384" gradientUnits="userSpaceOnUse">
<stop stop-color="#BFB09B"/>
<stop offset="0.3" stop-color="#C0B39F"/>
<stop offset="1" stop-color="#C4B6A2"/>
</linearGradient>
</defs>
</svg>
